<svg width="319" height="132" viewBox="0 0 319 132" fill="none" xmlns="http://www.w3.org/2000/svg">
<mask id="mask0_15371_128135" style="mask-type:luminance" maskUnits="userSpaceOnUse" x="0" y="78" width="319" height="54">
<path d="M318.053 78.9969H0.945312V131.087H318.053V78.9969Z" fill="white"/>
</mask>
<g mask="url(#mask0_15371_128135)">
<path d="M94.1572 85.2552H104.448L115.317 111.779H115.779L126.648 85.2552H136.939V124.73H128.842V99.0376H128.516L118.298 124.541H112.783L102.566 98.9456H102.24V124.735H94.1426V85.2552H94.1572Z" fill="black"/>
<path d="M157.05 125.309C154.006 125.309 151.385 124.691 149.197 123.452C147.003 122.211 145.32 120.451 144.138 118.17C142.957 115.889 142.363 113.185 142.363 110.063C142.363 107.019 142.952 104.344 144.138 102.043C145.32 99.7431 146.988 97.9485 149.143 96.6643C151.297 95.3807 153.822 94.7386 156.729 94.7386C158.685 94.7386 160.503 95.0499 162.195 95.6725C163.884 96.2951 165.362 97.2284 166.631 98.4785C167.896 99.7236 168.883 101.289 169.588 103.172C170.293 105.053 170.648 107.257 170.648 109.771V112.027H145.646V106.941H162.916C162.916 105.759 162.658 104.714 162.142 103.799C161.626 102.885 160.917 102.17 160.012 101.649C159.107 101.129 158.057 100.871 156.861 100.871C155.616 100.871 154.512 101.158 153.553 101.727C152.596 102.301 151.847 103.064 151.307 104.023C150.767 104.981 150.49 106.046 150.48 107.213V112.052C150.48 113.516 150.752 114.785 151.297 115.85C151.842 116.915 152.615 117.737 153.622 118.315C154.624 118.894 155.811 119.181 157.187 119.181C158.101 119.181 158.933 119.055 159.691 118.797C160.45 118.54 161.096 118.155 161.636 117.64C162.177 117.125 162.59 116.497 162.872 115.753L170.468 116.254C170.084 118.077 169.296 119.668 168.109 121.025C166.923 122.381 165.391 123.432 163.523 124.186C161.656 124.939 159.492 125.309 157.05 125.309Z" fill="black"/>
<path d="M175.641 124.73V95.1228H183.602V100.288H183.909C184.448 98.449 185.352 97.0582 186.627 96.1146C187.901 95.1716 189.365 94.6995 191.023 94.6995C191.436 94.6995 191.879 94.7238 192.351 94.7774C192.828 94.831 193.246 94.8987 193.606 94.9913V102.277C193.221 102.16 192.686 102.058 192.005 101.97C191.325 101.882 190.702 101.834 190.138 101.834C188.932 101.834 187.852 102.097 186.909 102.617C185.965 103.137 185.221 103.862 184.672 104.786C184.127 105.71 183.855 106.78 183.855 107.986V124.735H175.641V124.73Z" fill="black"/>
<path d="M201.187 91.3104C199.967 91.3104 198.921 90.9023 198.046 90.0848C197.17 89.2678 196.732 88.2907 196.732 87.1479C196.732 86.0142 197.17 85.0419 198.046 84.2298C198.921 83.4123 199.962 83.0042 201.168 83.0042C202.403 83.0042 203.454 83.4123 204.319 84.2298C205.185 85.0468 205.617 86.019 205.617 87.1479C205.617 88.2907 205.185 89.2727 204.319 90.0848C203.449 90.9023 202.408 91.3104 201.187 91.3104ZM197.044 124.731V95.1234H205.253V124.731H197.044Z" fill="black"/>
<path d="M222.202 125.212C219.956 125.212 217.918 124.628 216.104 123.466C214.285 122.304 212.846 120.587 211.785 118.32C210.725 116.054 210.195 113.268 210.195 109.965C210.195 106.571 210.74 103.75 211.834 101.494C212.928 99.2374 214.382 97.5493 216.201 96.426C218.02 95.3026 220.014 94.7385 222.188 94.7385C223.847 94.7385 225.228 95.0157 226.341 95.5749C227.455 96.1342 228.35 96.8298 229.041 97.6565C229.726 98.4832 230.251 99.3001 230.611 100.093H230.859V85.2552H239.049V124.73H230.952V119.989H230.606C230.222 120.811 229.677 121.623 228.977 122.425C228.277 123.227 227.372 123.894 226.258 124.419C225.15 124.949 223.793 125.212 222.202 125.212ZM224.804 118.68C226.127 118.68 227.251 118.315 228.17 117.591C229.089 116.866 229.794 115.845 230.29 114.537C230.787 113.224 231.034 111.692 231.034 109.931C231.034 108.171 230.791 106.644 230.3 105.345C229.814 104.047 229.103 103.045 228.18 102.34C227.256 101.635 226.132 101.279 224.804 101.279C223.457 101.279 222.319 101.644 221.395 102.379C220.471 103.113 219.771 104.125 219.294 105.423C218.818 106.722 218.58 108.224 218.58 109.931C218.58 111.653 218.823 113.175 219.304 114.488C219.786 115.806 220.486 116.833 221.405 117.572C222.319 118.31 223.452 118.68 224.804 118.68Z" fill="black"/>
<path d="M249.499 91.3104C248.279 91.3104 247.233 90.9023 246.358 90.0848C245.482 89.2678 245.045 88.2907 245.045 87.1479C245.045 86.0142 245.482 85.0419 246.358 84.2298C247.233 83.4123 248.274 83.0042 249.48 83.0042C250.715 83.0042 251.766 83.4123 252.632 84.2298C253.497 85.0468 253.93 86.019 253.93 87.1479C253.93 88.2907 253.497 89.2727 252.632 90.0848C251.766 90.9023 250.72 91.3104 249.499 91.3104ZM245.356 124.731V95.1234H253.565V124.731H245.356Z" fill="black"/>
<path d="M268.001 125.29C266.113 125.29 264.426 124.96 262.952 124.298C261.474 123.636 260.306 122.654 259.455 121.351C258.604 120.048 258.172 118.418 258.172 116.463C258.172 114.82 258.473 113.439 259.077 112.319C259.68 111.201 260.501 110.301 261.542 109.621C262.582 108.94 263.769 108.424 265.097 108.079C266.425 107.733 267.825 107.486 269.289 107.345C271.011 107.165 272.397 106.995 273.452 106.834C274.507 106.674 275.271 106.43 275.748 106.109C276.224 105.788 276.462 105.312 276.462 104.685V104.568C276.462 103.347 276.078 102.404 275.314 101.732C274.551 101.066 273.467 100.731 272.066 100.731C270.588 100.731 269.411 101.056 268.54 101.703C267.665 102.35 267.086 103.167 266.804 104.14L259.207 103.522C259.592 101.723 260.35 100.167 261.483 98.8485C262.617 97.5308 264.076 96.5141 265.87 95.8044C267.665 95.0892 269.742 94.734 272.105 94.734C273.749 94.734 275.324 94.9289 276.837 95.3127C278.345 95.6971 279.691 96.2954 280.864 97.1074C282.036 97.9195 282.97 98.9557 283.65 100.22C284.331 101.484 284.672 102.997 284.672 104.758V124.726H276.886V120.626H276.652C276.175 121.55 275.539 122.363 274.745 123.063C273.948 123.763 272.99 124.308 271.871 124.701C270.753 125.095 269.464 125.29 268.001 125.29ZM270.35 119.624C271.555 119.624 272.626 119.381 273.549 118.9C274.473 118.418 275.198 117.767 275.728 116.944C276.253 116.123 276.516 115.189 276.516 114.148V111.007C276.258 111.172 275.908 111.323 275.466 111.459C275.023 111.595 274.522 111.716 273.972 111.824C273.418 111.931 272.869 112.028 272.314 112.111C271.76 112.193 271.258 112.266 270.811 112.334C269.848 112.475 269.007 112.699 268.287 113.01C267.567 113.317 267.008 113.735 266.61 114.255C266.211 114.776 266.012 115.423 266.012 116.191C266.012 117.309 266.42 118.16 267.237 118.744C268.054 119.332 269.09 119.624 270.35 119.624Z" fill="black"/>
<path d="M298.969 107.616V124.735H290.76V95.123H298.585V100.346H298.93C299.586 98.6247 300.686 97.2576 302.227 96.2513C303.769 95.2443 305.641 94.7386 307.835 94.7386C309.892 94.7386 311.681 95.1913 313.213 96.0856C314.741 96.9853 315.932 98.2695 316.778 99.9326C317.624 101.596 318.052 103.58 318.052 105.881V124.73H309.843V107.344C309.858 105.53 309.395 104.115 308.457 103.094C307.519 102.073 306.23 101.562 304.581 101.562C303.477 101.562 302.504 101.8 301.663 102.277C300.822 102.753 300.165 103.444 299.698 104.349C299.222 105.253 298.983 106.342 298.969 107.616Z" fill="black"/>
<path d="M62.0782 79.2395C63.2259 79.9638 63.2308 81.1895 63.221 82.7022C63.2113 84.3604 63.221 92.8275 63.221 94.228C63.221 95.6285 63.0754 95.9203 61.7139 96.8786C60.3518 97.8362 35.7146 114.629 34.5767 115.436C33.4387 116.244 32.9183 116.725 32.218 116.725C31.5177 116.725 30.8563 116.321 30.0101 115.733C29.159 115.145 3.82635 98.0214 2.39169 96.8445C0.957031 95.6675 0.957031 95.5554 0.957031 92.939C0.957031 90.3225 0.957031 83.0329 0.957031 82.0016C0.957031 80.9708 0.957031 79.9785 1.87618 79.351C2.79534 78.7241 3.38379 78.9477 5.26587 80.1978C7.14793 81.4472 27.6174 95.405 29.3097 96.5478C31.0022 97.6907 31.3329 98.0214 32.145 98.0214C32.9572 98.0214 34.0611 97.0291 35.0532 96.3626C36.0454 95.6968 58.1391 80.64 59.3209 79.828C60.5026 79.016 61.305 78.7534 62.0782 79.2395Z" fill="black"/>
<path d="M62.3276 107.577C63.6015 108.457 63.2079 109.644 63.2079 111.531C63.2079 113.423 63.1641 125.547 63.1641 126.865C63.1641 128.183 63.4705 129.676 62.5025 130.556C61.5351 131.437 60.5816 131.111 59.4291 130.294C57.8679 129.19 48.7299 122.235 47.767 121.52C46.7992 120.806 45.8022 120.241 45.8946 119.06C45.9871 117.873 46.6728 117.469 47.6405 116.784C48.6083 116.098 58.2424 108.769 59.113 108.209C59.9835 107.645 61.1458 106.765 62.3276 107.577Z" fill="black"/>
<path d="M1.88307 107.577C0.608895 108.457 1.00282 109.644 1.00282 111.531C1.00282 113.423 1.04659 125.547 1.04659 126.865C1.04659 128.183 0.740203 129.676 1.70799 130.556C2.67578 131.437 3.62897 131.111 4.78156 130.294C6.34266 129.19 15.4807 122.235 16.4436 121.52C17.4114 120.806 18.4084 120.241 18.316 119.06C18.2236 117.873 17.5379 117.469 16.5701 116.784C15.6023 116.098 5.96819 108.769 5.09767 108.209C4.22229 107.645 3.05997 106.765 1.88307 107.577Z" fill="black"/>
</g>
<path d="M96.3843 112.57C95.1379 112.57 94.7376 108.92 94.7376 108.119C94.7376 107.317 98.966 92.7176 99.4558 90.9814C102.839 79.3191 106.756 67.8347 110.762 56.4398C104.085 57.241 96.8296 57.9087 90.1529 58.7989C86.4137 67.5234 83.52 76.7374 81.4725 86.0403C81.0278 88.3997 80.2261 92.4947 80.4935 94.8985C80.538 95.2549 80.9833 96.8571 80.4935 96.9015C80.3601 96.9015 80.1816 96.8126 80.0482 96.7237C80.5825 97.2134 80.9383 97.8366 81.0278 98.5488C81.2057 100.329 79.7369 102.198 78.5795 103.4C76.309 102.599 75.0182 100.997 74.7513 98.5933C73.9502 90.8036 81.428 68.191 84.4106 60.0898C51.9609 64.4518 46.931 66.0101 42.2572 68.28C41.634 69.1706 40.8773 69.9272 40.0761 70.6394C38.2955 70.8617 36.5595 71.2181 34.8236 71.5739C34.7345 71.6183 34.601 71.6183 34.512 71.6183C32.4199 71.7524 31.8858 67.4344 31.9302 65.9212C32.1083 62.5378 35.1352 61.5588 37.9839 61.2024C44.0822 60.4014 50.0914 58.8879 85.9239 55.4605L91.3542 38.9908C91.0873 38.2786 90.9095 37.5664 90.7316 36.8542C91.7995 34.317 92.3338 31.6908 93.3578 29.1981C93.3578 27.8182 93.2682 26.5274 95.0934 26.3938C95.4942 26.1268 95.9395 25.9932 96.3843 25.9487C98.3873 25.6816 103.64 27.1505 103.952 29.4652C104.085 30.2664 103.684 30.8896 103.284 31.5127C102.215 33.0707 98.966 37.9671 98.6547 39.525L98.4762 39.6586L91.9774 54.6148C98.4317 53.8135 105.732 53.3239 112.142 52.0776C115.436 43.3531 118.819 34.228 122.335 25.192C123.982 20.9633 125.54 16.7346 126.831 12.4169C127.81 9.03395 129.279 5.16134 129.947 1.73388C131.06 0.932652 132.44 0.0869141 133.908 0.0869141C136.312 0.0869141 137.648 2.5351 138.404 4.53816C137.648 7.7876 135.244 12.1053 133.775 15.1766C131.772 19.3163 129.769 23.367 127.721 27.4621C123.715 35.4299 120.11 43.6201 116.771 51.8995C119.575 51.5434 122.424 51.1428 125.273 50.7422C130.214 50.0745 135.155 49.3177 140.14 48.8281C140.808 48.7391 141.476 48.6945 142.188 48.6945C144.814 48.6945 147.44 49.3623 149.532 51.0092C150.69 51.8995 151.981 53.1458 151.981 54.7038C151.981 55.4605 151.713 56.1282 151.269 56.7513C150.601 56.8404 149.933 56.8849 149.266 56.8849C146.995 56.8849 144.814 56.2172 143.701 54.0806C143.034 54.2141 142.321 54.2141 141.654 54.2141C140.318 54.2141 138.983 54.1251 137.648 54.1251C130.169 54.1251 122.603 55.1044 115.124 55.9501C110.539 67.7013 106.355 79.72 103.106 91.961C102.082 95.8781 101.102 99.8841 100.301 103.846C100.123 104.825 99.6337 108.43 99.4113 109.054C99.0549 109.855 97.4528 112.57 96.3843 112.57Z" fill="#FFDA00"/>
<path d="M185.144 96.7688C173.704 96.368 164.98 89.6468 164.757 77.6287C164.713 75.5806 164.98 73.5331 165.38 71.5301C164.446 71.4412 163.466 71.3522 162.487 71.3522C161.552 71.3078 160.618 71.3078 159.683 71.3078C158.703 77.2279 157.947 83.2369 157.546 89.2904C156.567 90.3145 155.187 91.4719 153.673 91.4274C151.715 91.3385 150.424 89.3355 149.667 87.7772C150.825 82.4358 151.804 77.05 152.739 71.708C148.376 72.0644 143.881 72.2867 139.697 73.5331C137.159 77.6287 134.756 81.8126 132.886 86.264C131.595 89.2904 130.082 92.3619 129.013 95.478C127.857 96.1456 126.521 96.6799 125.096 96.6354C122.248 96.5465 120.868 93.7862 120.111 91.383C121.046 87.8217 128.079 78.0734 130.483 74.5572C128.836 73.845 127.189 72.732 127.144 70.7735C127.099 69.2158 128.079 67.6575 128.969 66.5C132.53 65.3877 133.242 64.6755 137.293 64.497C143.169 55.9953 149.133 47.538 155.053 39.0806C156.3 37.3001 158.57 34.9409 160.974 35.0299C163.422 35.119 168.674 38.0123 168.719 40.7721C168.763 41.2617 168.585 41.7068 168.407 42.1519C164.891 49.541 162.798 55.6392 161.107 63.7849C163.288 63.8293 165.514 63.8738 167.74 64.0078C172.235 53.1911 179.802 45.0452 189.773 39.0806C193.29 36.944 197.608 35.4306 201.836 35.5641C204.418 35.6531 207.756 36.5434 208.958 39.1696C209.092 39.5702 210.249 42.2409 210.249 42.508C210.249 44.1105 210.071 47.1818 207.89 47.1374C206.822 47.0928 205.664 46.3806 204.819 45.7574C204.685 45.5349 204.507 45.1343 204.151 45.0898C203.617 45.0898 203.394 45.891 202.682 45.8465C201.925 45.8465 201.569 44.9117 199.922 44.8672C198.053 44.7782 195.426 45.891 193.735 46.6032C185.144 50.2977 177.577 58.2655 174.283 67.0343C174.505 67.5241 174.684 68.0139 174.684 68.5481C174.684 69.7939 173.838 70.7735 172.903 71.4412C172.413 73.3552 172.058 75.3138 172.102 77.3168C172.102 78.3408 172.235 79.3643 172.591 80.3439C174.906 86.7087 180.782 88.7123 186.924 88.9346C197.029 89.2904 210.961 84.4833 218.127 77.6287H218.573C221.555 77.7621 223.692 78.9196 223.736 82.169C223.781 82.9256 223.647 83.6377 223.514 84.3944C214.032 90.8487 196.94 97.1697 185.144 96.7688ZM145.928 64.0078C148.644 63.8293 151.404 63.7404 154.119 63.7404C154.92 59.1557 155.81 54.5709 156.434 49.9861C152.694 54.3929 149.267 59.2002 145.928 64.0078Z" fill="#FFDA00"/>
<path d="M215.5 95.255V95.2994C213.586 95.2994 213.008 92.5843 212.785 91.1594C215.411 84.9725 217.682 78.607 219.774 72.1971C218.082 70.8173 216.346 68.5475 216.302 66.366C216.212 61.9146 221.688 58.4874 224.982 56.5734C227.163 50.4752 229.478 44.1099 230.368 37.6556C230.545 36.6318 230.857 35.697 232.059 35.5635C232.594 35.1183 233.35 34.8958 234.018 34.8958C235.932 34.8958 240.383 37.344 240.428 39.436C240.428 40.1928 240.071 40.8159 239.626 41.3501C237.312 44.5105 235.487 47.8934 233.795 51.4099C241.095 46.9587 247.639 41.9287 254.182 36.4092C254.983 35.7415 255.873 35.2074 256.986 35.2074C260.236 35.2074 261.615 37.2994 261.66 39.8812C261.66 41.7062 260.77 42.819 259.257 43.6647C249.063 49.2733 238.869 55.149 229.433 61.9146L227.741 66.4105C232.994 70.3275 250.132 74.601 257.208 76.7819C262.506 78.3847 267.803 80.4322 272.743 83.0584C272.966 83.9039 273.144 84.705 273.189 85.5512C273.233 88.4887 271.052 89.4683 268.426 89.6017C266.868 88.1774 264.909 87.1534 262.995 86.2189C254.761 82.3907 245.814 80.3432 237 78.3402C232.905 77.4051 228.721 76.3817 224.804 74.8234C222.711 80.9664 220.753 87.1534 218.973 93.3854C218.082 94.1864 216.747 95.255 215.5 95.255Z" fill="#FFDA00"/>
</svg>
